<?xml version="1.0" standalone="no"?>
<!DOCTYPE svg PUBLIC "-//W3C//DTD SVG 20010904//EN"
 "http://www.w3.org/TR/2001/REC-SVG-20010904/DTD/svg10.dtd">
<svg version="1.0" xmlns="http://www.w3.org/2000/svg"
 width="48.000000pt" height="48.000000pt" viewBox="0 0 48.000000 48.000000"
 preserveAspectRatio="xMidYMid meet">

<g transform="translate(0.000000,48.000000) scale(0.100000,-0.100000)"
fill="#000000" stroke="none">
<path d="M235 418 c-30 -16 -55 -50 -55 -75 0 -37 17 -35 37 4 15 31 23 38 48
38 27 0 30 -3 30 -30 0 -25 -7 -33 -38 -48 -38 -19 -41 -37 -6 -37 74 0 114
104 56 145 -25 18 -45 18 -72 3z"/>
<path d="M94 282 c-54 -43 -51 -108 6 -132 50 -21 110 25 110 84 0 37 -15 32
-37 -11 -15 -31 -23 -38 -48 -38 -27 0 -30 3 -30 30 0 25 7 33 38 48 20 10 37
23 37 28 0 15 -54 9 -76 -9z"/>
<path d="M295 241 c-64 -27 -81 -110 -32 -158 60 -61 162 -19 162 67 0 66 -72
116 -130 91z m23 -53 c8 -8 15 -8 27 2 22 19 44 -2 25 -25 -10 -12 -10 -18 0
-30 10 -12 10 -19 2 -27 -8 -8 -15 -8 -27 2 -12 10 -18 10 -30 0 -22 -19 -44
3 -25 25 10 12 10 18 0 30 -21 25 4 47 28 23z"/>
</g>
</svg>
