<?xml version="1.0" standalone="no"?>
<!DOCTYPE svg PUBLIC "-//W3C//DTD SVG 20010904//EN"
 "http://www.w3.org/TR/2001/REC-SVG-20010904/DTD/svg10.dtd">
<svg version="1.0" xmlns="http://www.w3.org/2000/svg"
 width="24.000000pt" height="24.000000pt" viewBox="0 0 24.000000 24.000000"
 preserveAspectRatio="xMidYMid meet">

<g transform="translate(0.000000,24.000000) scale(0.100000,-0.100000)"
fill="#000000" stroke="none">
<path d="M60 186 c-59 -26 -74 -44 -42 -53 14 -3 22 -16 26 -43 7 -42 19 -50
76 -50 48 0 70 8 70 25 0 8 4 16 9 19 5 3 8 0 7 -7 0 -6 4 -12 9 -12 6 0 10
14 10 32 0 17 3 35 8 39 14 14 7 23 -37 43 -71 31 -78 31 -136 7z m118 -11
c38 -15 56 -35 33 -35 -5 0 -8 -8 -6 -17 1 -10 0 -12 -2 -5 -6 15 -6 15 -48
-2 -32 -14 -39 -13 -85 6 -27 11 -50 24 -50 28 0 10 92 49 105 45 6 -1 29 -11
53 -20z m-58 -79 c8 0 25 4 38 8 21 7 23 5 20 -21 -3 -27 -5 -28 -58 -28 -53
0 -55 1 -58 28 -3 26 -1 28 20 21 13 -4 30 -8 38 -8z"/>
</g>
</svg>
