<?xml version="1.0" standalone="no"?>
<!DOCTYPE svg PUBLIC "-//W3C//DTD SVG 20010904//EN"
 "http://www.w3.org/TR/2001/REC-SVG-20010904/DTD/svg10.dtd">
<svg version="1.0" xmlns="http://www.w3.org/2000/svg"
 width="100.000000pt" height="100.000000pt" viewBox="0 0 100.000000 100.000000"
 preserveAspectRatio="xMidYMid meet">

<g transform="translate(0.000000,100.000000) scale(0.100000,-0.100000)"
fill="#000000" stroke="none">
<path d="M260 811 c0 -21 -6 -32 -20 -36 -47 -15 -50 -86 -5 -107 34 -15 31
-23 -14 -36 -57 -18 -71 -46 -71 -147 0 -74 3 -86 20 -97 18 -11 20 -24 20
-109 0 -65 4 -100 13 -107 6 -5 32 -10 57 -10 25 0 51 5 57 10 9 7 13 43 13
114 l0 104 260 0 260 0 0 40 c0 22 -4 40 -10 40 -6 0 -10 68 -10 185 l0 185
-285 0 -285 0 0 -29z m550 -171 c0 -113 -4 -180 -10 -180 -5 0 -11 30 -12 68
l-2 67 -3 -67 -4 -68 -172 -3 -172 -3 198 -2 c190 -2 197 -3 197 -22 0 -19 -7
-20 -250 -20 l-250 0 0 61 0 61 25 -16 c28 -19 106 -21 123 -4 7 7 12 19 12
27 0 9 30 47 68 86 l67 70 -70 -66 c-69 -65 -71 -66 -115 -61 -26 2 -56 14
-71 26 -15 13 -40 28 -58 35 -36 16 -38 24 -11 51 11 11 20 29 20 40 0 11 -9
29 -20 40 -11 11 -20 29 -20 40 0 19 7 20 265 20 l265 0 0 -180z m-520 105
c26 -32 -13 -81 -47 -59 -35 22 -23 74 17 74 10 0 23 -7 30 -15z m23 -136 c12
-7 35 -23 50 -35 19 -16 41 -24 68 -24 28 0 39 -4 39 -15 0 -23 -78 -19 -115
5 -16 11 -33 20 -37 20 -4 0 -9 -84 -10 -187 -3 -159 -5 -188 -18 -188 -12 0
-16 19 -18 103 -1 56 -7 102 -12 102 -5 0 -11 -46 -12 -102 -2 -84 -6 -103
-18 -103 -13 0 -16 30 -20 185 -3 102 -7 150 -8 108 -2 -62 -5 -78 -17 -78
-12 0 -15 16 -15 81 0 44 5 89 11 100 19 36 89 50 132 28z"/>
<path d="M554 793 l225 -3 4 -28 c5 -25 5 -25 3 3 l-1 30 -228 0 -227 1 224
-3z"/>
<path d="M781 684 c0 -11 3 -14 6 -6 3 7 2 16 -1 19 -3 4 -6 -2 -5 -13z"/>
<path d="M782 630 c0 -19 2 -27 5 -17 2 9 2 25 0 35 -3 9 -5 1 -5 -18z"/>
<path d="M378 453 c6 -2 18 -2 25 0 6 3 1 5 -13 5 -14 0 -19 -2 -12 -5z"/>
</g>
</svg>
