<svg width="151" height="139" viewBox="0 0 151 139" fill="none" xmlns="http://www.w3.org/2000/svg">
<circle cx="82.7983" cy="73.1284" r="65" fill="#0098FF"/>
<path d="M97.857 67.757C99.4527 67.757 100.814 67.1935 101.941 66.0666C103.068 64.9396 103.632 63.5782 103.632 61.9825C103.632 60.3868 103.068 59.0255 101.941 57.8984C100.814 56.7715 99.4527 56.208 97.857 56.208C96.2613 56.208 94.9041 56.7686 93.7855 57.8897C92.6668 59.0108 92.1075 60.3722 92.1075 61.9738C92.1075 63.5753 92.6665 64.9396 93.7844 66.0666C94.9024 67.1935 96.2599 67.757 97.857 67.757ZM67.7393 67.757C69.335 67.757 70.6922 67.1964 71.8109 66.0753C72.9295 64.9542 73.4888 63.5929 73.4888 61.9913C73.4888 60.3897 72.9298 59.0255 71.8119 57.8984C70.6939 56.7715 69.3364 56.208 67.7393 56.208C66.1436 56.208 64.7823 56.7715 63.6552 57.8984C62.5283 59.0255 61.9648 60.3868 61.9648 61.9825C61.9648 63.5782 62.5283 64.9396 63.6552 66.0666C64.7823 67.1935 66.1436 67.757 67.7393 67.757ZM82.7982 95.9408C87.3815 95.9408 91.6002 94.7082 95.4544 92.2429C98.1195 90.5382 100.278 88.4101 101.931 85.8587C103.004 84.2006 101.674 82.1908 99.699 82.1908C98.7088 82.1908 97.8084 82.7292 97.2336 83.5355C95.7737 85.5839 93.9154 87.2047 91.6587 88.3978C88.929 89.8411 85.9919 90.5627 82.8475 90.5627C79.7032 90.5627 76.7539 89.8584 73.9995 88.4499C71.7373 87.293 69.9 85.679 68.4876 83.6076C67.9118 82.7633 66.9893 82.1908 65.9673 82.1908C63.972 82.1908 62.6411 84.2335 63.7411 85.8982C65.4156 88.4321 67.5665 90.547 70.194 92.2429C74.0134 94.7082 78.2148 95.9408 82.7982 95.9408ZM82.7995 115.418C76.9517 115.418 71.4557 114.312 66.3115 112.099C61.1673 109.887 56.6871 106.872 52.8707 103.056C49.0542 99.2394 46.0398 94.7596 43.8273 89.6164C41.615 84.4731 40.5088 78.9775 40.5088 73.1297C40.5088 67.2818 41.615 61.7858 43.8273 56.6417C46.0398 51.4975 49.0529 47.0168 52.8667 43.1995C56.6805 39.3822 61.1597 36.3636 66.3042 34.1438C71.4486 31.9239 76.9455 30.814 82.7947 30.814C88.644 30.814 94.1416 31.9233 99.2877 34.1419C104.434 36.3604 108.915 39.3772 112.731 43.1923C116.547 47.0074 119.565 51.4881 121.784 56.6343C124.003 61.7805 125.113 67.2792 125.113 73.1304C125.113 78.9806 124.003 84.4776 121.783 89.6215C119.563 94.7654 116.544 99.2445 112.727 103.059C108.91 106.873 104.429 109.887 99.2862 112.099C94.1429 114.312 88.6474 115.418 82.7995 115.418ZM82.7982 108.321C92.6189 108.321 100.939 104.911 107.76 98.0901C114.58 91.2696 117.991 82.949 117.991 73.1283C117.991 63.3076 114.58 54.9871 107.76 48.1666C100.939 41.3461 92.6189 37.9358 82.7982 37.9358C72.9775 37.9358 64.6569 41.3461 57.8364 48.1666C51.0159 54.9871 47.6057 63.3076 47.6057 73.1283C47.6057 82.949 51.0159 91.2696 57.8364 98.0901C64.6569 104.911 72.9775 108.321 82.7982 108.321Z" fill="white"/>
<path d="M98.526 4.77598C99.9622 2.50451 107.585 -0.825056 110.603 3.31386C114.233 8.29159 114.845 8.24207 120.364 5.35564C120.797 5.129 121.306 5.06083 121.774 5.2035C127.936 7.0832 123.65 11.0785 126.738 16.3316C126.913 16.6295 127.178 16.8705 127.499 16.9994C132.429 18.9824 136.123 12.3951 141.382 15.9522C141.821 16.2494 142.087 16.7473 142.048 17.2763C141.754 21.2373 137.928 29.3155 143.943 30.0496C150.414 30.8394 148.924 41.7838 146.404 42.1716" stroke="#0098FF" stroke-width="2" stroke-linecap="round"/>
<path d="M10.8567 75.1113C8.36132 76.109 3.69693 82.9966 7.21575 86.7192C11.4477 91.1963 11.2875 91.7884 7.44267 96.688C7.14078 97.0728 6.9809 97.5607 7.03584 98.0466C7.75968 104.449 12.4698 100.964 17.0715 104.958C17.3324 105.185 17.5211 105.489 17.5894 105.828C18.6397 111.037 11.4889 113.467 14.0269 119.287C14.2389 119.773 14.68 120.125 15.2072 120.183C19.1553 120.617 27.7961 118.328 27.4205 124.377C27.0165 130.883 38.049 131.415 38.8901 129.008" stroke="#0098FF" stroke-width="2" stroke-linecap="round"/>
</svg>
